<svg width="37" height="33" viewBox="0 0 37 33" fill="none" xmlns="http://www.w3.org/2000/svg">
<path d="M37 8.25V29.4643C37 31.4163 35.4463 33 33.5312 33H3.46875C1.55371 33 0 31.4163 0 29.4643V8.25C0 6.29799 1.55371 4.71429 3.46875 4.71429H9.82812L10.717 2.29085C11.2229 0.913393 12.5164 0 13.9617 0H23.0311C24.4764 0 25.7699 0.913393 26.2758 2.29085L27.1719 4.71429H33.5312C35.4463 4.71429 37 6.29799 37 8.25ZM27.1719 18.8571C27.1719 13.9808 23.284 10.0179 18.5 10.0179C13.716 10.0179 9.82812 13.9808 9.82812 18.8571C9.82812 23.7335 13.716 27.6964 18.5 27.6964C23.284 27.6964 27.1719 23.7335 27.1719 18.8571ZM24.8594 18.8571C24.8594 22.4297 22.0049 25.3393 18.5 25.3393C14.9951 25.3393 12.1406 22.4297 12.1406 18.8571C12.1406 15.2846 14.9951 12.375 18.5 12.375C22.0049 12.375 24.8594 15.2846 24.8594 18.8571Z" fill="white"/>
</svg>
